<?xml version="1.0" encoding="utf-8"?>
<!-- Generator: Adobe Illustrator 17.0.0, SVG Export Plug-In . SVG Version: 6.00 Build 0)  -->
<!DOCTYPE svg PUBLIC "-//W3C//DTD SVG 1.0//EN" "http://www.w3.org/TR/2001/REC-SVG-20010904/DTD/svg10.dtd">
<svg version="1.0" id="Layer_1" xmlns="http://www.w3.org/2000/svg" xmlns:xlink="http://www.w3.org/1999/xlink" x="0px" y="0px"
	 width="218.4px" height="14.6px" viewBox="0 0 218.4 14.6" enable-background="new 0 0 218.4 14.6" xml:space="preserve">
<path fill="#BFBEBE" d="M13.2,9.4l1.9,2.8l-0.3,0.2c-0.2-0.2-0.3-0.3-0.5-0.3c-0.1,0-0.4,0.2-1,0.5c-1.1,0.6-2.1,1.1-2.8,1.3
	c-0.8,0.2-1.7,0.3-2.7,0.3c-2.1,0-3.8-0.5-5.2-1.5c-0.8-0.6-1.4-1.3-1.9-2.2C0.3,9.6,0,8.5,0,7.3c0-1.6,0.5-3,1.4-4.2
	C2.8,1.3,5,0.4,7.9,0.4c1.1,0,2,0.1,2.7,0.3c0.8,0.2,1.7,0.7,2.8,1.3c0.5,0.3,0.9,0.5,1,0.5c0.1,0,0.3-0.1,0.5-0.3l0.3,0.2l-1.9,2.8
	L13,5c0-0.1,0-0.2,0-0.3c0-0.2-0.1-0.4-0.2-0.5c-0.2-0.2-0.5-0.4-0.9-0.6c-1.2-0.6-2.4-1-3.7-1C6.7,2.7,5.5,3,4.6,3.8
	C3.5,4.7,3,5.9,3,7.3c0,1.4,0.5,2.6,1.6,3.5c0.9,0.8,2.1,1.1,3.6,1.1c1.3,0,2.5-0.3,3.7-1c0.4-0.2,0.7-0.4,0.9-0.6
	C12.9,10.2,13,10,13,9.8c0-0.1,0-0.2,0-0.3L13.2,9.4z M21.8,8.7L24,4l2.2,4.7H21.8z M27.9,12.4c0.1,0.3,0.2,0.5,0.2,0.6
	c0,0.3-0.2,0.5-0.6,0.6V14h4.9v-0.3c-0.3-0.1-0.5-0.2-0.7-0.3c-0.2-0.2-0.4-0.5-0.6-0.9L26.1,2.2c-0.1-0.2-0.2-0.5-0.2-0.6
	c0-0.3,0.2-0.5,0.6-0.6V0.6h-4.7v0.3c0.4,0.1,0.6,0.3,0.6,0.6c0,0.2-0.1,0.5-0.2,0.8l-4.9,10.2c-0.2,0.4-0.3,0.6-0.5,0.8
	c-0.1,0.1-0.3,0.2-0.6,0.3V14h4.4v-0.3c-0.4-0.1-0.7-0.3-0.7-0.6c0-0.2,0.1-0.4,0.2-0.6l0.9-1.9H27L27.9,12.4z M37.4,2.8h4.4
	c0.9,0,1.5,0.1,1.9,0.3c0.2,0.1,0.4,0.3,0.6,0.6c0.1,0.3,0.2,0.6,0.2,0.9c0,0.3-0.1,0.6-0.2,0.9c-0.1,0.3-0.3,0.5-0.6,0.6
	c-0.4,0.2-1,0.3-1.9,0.3h-4.4V2.8z M42.2,8.5c1.2,0,2.2-0.1,2.9-0.4c0.7-0.2,1.2-0.7,1.7-1.2c0.5-0.7,0.7-1.5,0.7-2.4
	c0-0.6-0.1-1.2-0.4-1.8c-0.3-0.5-0.6-1-1.1-1.3c-0.4-0.3-0.9-0.5-1.5-0.7c-0.6-0.1-1.3-0.2-2.3-0.2h-8.3v0.3
	c0.2,0.1,0.4,0.2,0.5,0.3c0.1,0.1,0.1,0.3,0.1,0.5v11.3c0,0.2,0,0.3-0.1,0.4c-0.1,0.1-0.3,0.2-0.5,0.3V14h4.2v-0.3
	c-0.2-0.1-0.4-0.1-0.5-0.2c-0.1-0.1-0.1-0.3-0.1-0.5V8.5H42.2z M49.8,12.9c0,0.2,0,0.4-0.1,0.5c-0.1,0.1-0.3,0.2-0.5,0.3V14h4.2
	v-0.3c-0.2-0.1-0.4-0.1-0.5-0.2c-0.1-0.1-0.1-0.3-0.1-0.5V1.6c0-0.2,0-0.3,0.1-0.5C53,1.1,53.1,1,53.4,0.9V0.6h-4.2v0.3
	c0.2,0.1,0.4,0.1,0.5,0.3c0.1,0.1,0.1,0.3,0.1,0.4V12.9 M67.7,2.8c0.2,0,0.4,0,0.5,0.1c0.1,0.1,0.2,0.3,0.3,0.5h0.3V0h-0.3
	c-0.1,0.2-0.2,0.4-0.3,0.5c-0.1,0.1-0.3,0.1-0.5,0.1H56.5c-0.2,0-0.3,0-0.4-0.1C56,0.4,55.9,0.2,55.8,0h-0.3v3.4h0.3
	C55.9,3.2,55.9,3,56,3c0.1-0.1,0.3-0.1,0.4-0.1h4.1v10.1c0,0.2,0,0.4-0.1,0.5c-0.1,0.1-0.3,0.2-0.5,0.3V14h4.2v-0.3
	c-0.2-0.1-0.4-0.1-0.5-0.3c-0.1-0.1-0.1-0.3-0.1-0.5V2.8H67.7z M77.6,2.7c1.3,0,2.4,0.4,3.2,1.1c1,0.9,1.5,2.1,1.5,3.6
	c0,0.6-0.1,1.2-0.4,1.8c-0.3,0.7-0.7,1.2-1.2,1.6c-0.8,0.8-1.9,1.1-3.2,1.1c-1.3,0-2.3-0.4-3.2-1.1c-1-0.9-1.5-2.1-1.5-3.5
	c0-1.4,0.5-2.6,1.5-3.5C75.3,3,76.4,2.7,77.6,2.7 M77.6,0.4c-3.1,0-5.3,1.1-6.6,3.2c-0.7,1.1-1,2.3-1,3.7c0,0.9,0.2,1.8,0.5,2.6
	c0.4,0.9,0.9,1.7,1.7,2.4c1.4,1.3,3.2,1.9,5.5,1.9c3.1,0,5.3-1.1,6.6-3.2c0.7-1.1,1-2.3,1-3.6c0-2.1-0.7-3.8-2.2-5.1
	C81.8,1,79.9,0.4,77.6,0.4 M90.5,1.7c0-0.2,0-0.4,0.1-0.5c0.1-0.1,0.3-0.2,0.5-0.2V0.6H87v0.3c0.2,0.1,0.4,0.2,0.5,0.3
	c0.1,0.1,0.1,0.3,0.1,0.5v11.3c0,0.2,0,0.4-0.1,0.5c-0.1,0.1-0.3,0.2-0.5,0.3V14h11.7c0.2,0,0.4,0,0.5,0.1c0.1,0.1,0.2,0.3,0.3,0.5
	h0.3v-3.4h-0.3c-0.1,0.2-0.2,0.4-0.3,0.5c-0.1,0.1-0.3,0.1-0.5,0.1h-8.2V1.7z M118,1.6c-0.2,0.2-0.4,0.4-0.5,0.4c0,0-0.1,0-0.2-0.1
	c-1.8-1-3.6-1.5-5.5-1.5c-2.9,0-5,0.9-6.5,2.8c-0.9,1.2-1.4,2.6-1.4,4.2c0,2,0.7,3.7,2.2,5c1.4,1.2,3.2,1.9,5.5,1.9
	c1.2,0,2.2-0.2,3.2-0.5c0.5-0.2,0.9-0.3,1.3-0.6c0.4-0.2,0.9-0.6,1.5-1c0.2-0.1,0.3-0.2,0.4-0.2c0.1,0,0.3,0.1,0.4,0.2l0.2-0.2
	l-1.7-2.1l-0.2,0.2c0.1,0.2,0.2,0.4,0.2,0.4c0,0.2-0.3,0.5-0.9,0.9c-1.3,1-2.7,1.4-4.4,1.4c-1.7,0-3.1-0.5-4.3-1.6
	c-1.2-1.1-1.8-2.4-1.8-4c0-1.6,0.6-3,1.7-4c1.1-1,2.6-1.5,4.4-1.5c1.4,0,2.6,0.3,3.7,0.8c0.8,0.4,1.2,0.7,1.2,1c0,0.1,0,0.3-0.1,0.5
	l0.3,0.2l1.4-2.4L118,1.6z M122.9,1.9h5.3c0.8,0,1.4,0,1.7,0.1c0.4,0.1,0.7,0.2,1,0.3c0.7,0.4,1,1,1,2c0,0.9-0.3,1.6-1,2
	c-0.3,0.2-0.6,0.3-1,0.3c-0.4,0.1-0.9,0.1-1.7,0.1h-5.4V1.9z M128,8l3,4.8c0.2,0.4,0.3,0.6,0.3,0.6c0,0.1-0.2,0.2-0.5,0.3V14h3.1
	v-0.3c-0.4,0-0.7-0.2-0.9-0.5l-3.4-5.3c1.2-0.1,2.1-0.5,2.8-1.1c0.7-0.6,1-1.5,1-2.5c0-0.7-0.2-1.3-0.5-1.8
	c-0.3-0.5-0.6-0.8-1.1-1.1c-0.4-0.3-0.9-0.5-1.5-0.6c-0.6-0.1-1.4-0.2-2.4-0.2h-7.3v0.3c0.2,0.1,0.4,0.1,0.5,0.3
	c0.1,0.1,0.1,0.3,0.1,0.6v11c0,0.3,0,0.5-0.1,0.6c-0.1,0.1-0.3,0.2-0.5,0.3V14h2.8v-0.3c-0.2-0.1-0.4-0.2-0.5-0.3
	c-0.1-0.1-0.1-0.3-0.1-0.6V8H128z M143.2,1.7c1,0,1.9,0.1,2.8,0.4c0.7,0.2,1.4,0.7,2.1,1.3c1.1,1,1.6,2.3,1.6,4
	c0,1.5-0.5,2.8-1.6,3.8c-1.2,1.1-2.8,1.7-4.8,1.7c-2,0-3.6-0.6-4.8-1.7c-1.1-1-1.6-2.3-1.6-3.9c0-1.6,0.5-2.8,1.6-3.9
	C139.6,2.3,141.2,1.7,143.2,1.7 M143.2,0.4c-1.4,0-2.6,0.2-3.6,0.6c-1.4,0.6-2.5,1.4-3.3,2.6c-0.7,1.1-1.1,2.3-1.1,3.7
	c0,0.9,0.2,1.7,0.5,2.5c0.4,1,1,1.8,1.8,2.5c1.4,1.2,3.3,1.8,5.7,1.8c1.3,0,2.5-0.2,3.6-0.6c1.4-0.5,2.5-1.4,3.3-2.6
	c0.7-1.1,1.1-2.3,1.1-3.6c0-0.9-0.2-1.8-0.5-2.6c-0.4-1-1-1.8-1.8-2.5C147.4,1,145.5,0.4,143.2,0.4 M165.6,1.3
	c-0.2,0.3-0.4,0.4-0.5,0.4c-0.1,0-0.2,0-0.4-0.1c-1-0.4-1.8-0.7-2.6-0.9c-0.8-0.2-1.6-0.3-2.5-0.3c-1.1,0-2.1,0.1-3,0.4
	c-0.9,0.3-1.6,0.7-2.2,1.2c-0.7,0.7-1.1,1.5-1.1,2.4c0,0.6,0.1,1.1,0.4,1.5c0.3,0.5,0.6,0.8,1.1,1.1c0.5,0.3,1.1,0.5,1.7,0.6
	c0.6,0.1,1.5,0.2,2.6,0.3c1.6,0.1,2.5,0.1,2.9,0.1c0.3,0,0.7,0.1,1,0.2c1,0.3,1.5,0.9,1.5,1.8c0,0.7-0.3,1.2-0.9,1.7
	c-0.9,0.7-2.1,1.1-3.7,1.1c-0.8,0-1.6-0.1-2.3-0.3c-0.7-0.2-1.4-0.5-2.2-0.8c-0.8-0.4-1.2-0.8-1.2-1c0-0.1,0.1-0.3,0.2-0.5l-0.3-0.2
	l-1.5,2.5l0.3,0.2c0.2-0.2,0.4-0.4,0.5-0.4c0.1,0,0.2,0.1,0.6,0.2c1.2,0.6,2.2,1,3,1.3c0.8,0.2,1.8,0.3,2.9,0.3c2,0,3.5-0.4,4.6-1.3
	c1-0.8,1.5-1.8,1.5-3c0-1.3-0.6-2.2-1.7-2.8c-0.4-0.2-0.9-0.4-1.6-0.5c-0.6-0.1-1.7-0.2-3.2-0.2c-1.1,0-1.9-0.1-2.3-0.1
	c-0.5-0.1-0.9-0.2-1.2-0.3c-0.3-0.1-0.6-0.4-0.8-0.6c-0.2-0.3-0.3-0.6-0.3-0.9c0-0.4,0.1-0.8,0.4-1.1c0.2-0.4,0.6-0.6,1-0.9
	c0.9-0.4,1.9-0.7,3.1-0.7c1.5,0,2.9,0.3,4.2,0.9c0.5,0.2,0.7,0.4,0.7,0.6c0,0.1-0.1,0.3-0.2,0.5l0.3,0.1l1.4-2.5L165.6,1.3z
	 M180.5,1.3c-0.2,0.3-0.4,0.4-0.5,0.4c-0.1,0-0.2,0-0.4-0.1c-1-0.4-1.8-0.7-2.6-0.9c-0.8-0.2-1.6-0.3-2.5-0.3c-1.1,0-2.1,0.1-3,0.4
	c-0.9,0.3-1.6,0.7-2.2,1.2c-0.7,0.7-1.1,1.5-1.1,2.4c0,0.6,0.1,1.1,0.4,1.5c0.3,0.5,0.6,0.8,1.1,1.1c0.5,0.3,1.1,0.5,1.7,0.6
	c0.6,0.1,1.5,0.2,2.6,0.3C175.7,8,176.7,8,177,8c0.3,0,0.7,0.1,1,0.2c1,0.3,1.5,0.9,1.5,1.8c0,0.7-0.3,1.2-0.9,1.7
	c-0.9,0.7-2.1,1.1-3.7,1.1c-0.8,0-1.6-0.1-2.3-0.3c-0.7-0.2-1.4-0.5-2.2-0.8c-0.8-0.4-1.2-0.8-1.2-1c0-0.1,0.1-0.3,0.2-0.5l-0.3-0.2
	l-1.5,2.5l0.3,0.2c0.2-0.2,0.4-0.4,0.5-0.4c0.1,0,0.2,0.1,0.6,0.2c1.2,0.6,2.2,1,3,1.3c0.8,0.2,1.8,0.3,2.9,0.3c2,0,3.5-0.4,4.6-1.3
	c1-0.8,1.5-1.8,1.5-3c0-1.3-0.6-2.2-1.7-2.8c-0.4-0.2-0.9-0.4-1.6-0.5c-0.6-0.1-1.7-0.2-3.2-0.2c-1.1,0-1.9-0.1-2.3-0.1
	c-0.5-0.1-0.9-0.2-1.2-0.3c-0.3-0.1-0.6-0.4-0.8-0.6c-0.2-0.3-0.3-0.6-0.3-0.9c0-0.4,0.1-0.8,0.4-1.1c0.2-0.4,0.6-0.6,1-0.9
	c0.9-0.4,1.9-0.7,3.1-0.7c1.5,0,2.9,0.3,4.2,0.9c0.5,0.2,0.7,0.4,0.7,0.6c0,0.1-0.1,0.3-0.2,0.5l0.3,0.1l1.4-2.5L180.5,1.3z
	 M183.9,12.8c0,0.3,0,0.5-0.1,0.6c-0.1,0.1-0.2,0.2-0.5,0.3V14h2.8v-0.3c-0.3-0.1-0.4-0.2-0.5-0.3c-0.1-0.1-0.1-0.3-0.1-0.6v-11
	c0-0.3,0-0.5,0.1-0.6c0.1-0.1,0.2-0.2,0.5-0.3V0.6h-2.8v0.3c0.2,0.1,0.4,0.1,0.5,0.3c0.1,0.1,0.1,0.3,0.1,0.6V12.8 M199,12.5
	c0.3,0.3,0.4,0.6,0.4,0.7c0,0.2-0.1,0.3-0.4,0.4V14h3.1v-0.3c-0.2-0.1-0.4-0.2-0.5-0.3c-0.1-0.1-0.1-0.3-0.1-0.6v-11
	c0-0.3,0-0.5,0.1-0.6c0.1-0.1,0.2-0.2,0.5-0.3V0.6h-2.6v0.3c0.2,0.1,0.4,0.1,0.5,0.3c0.1,0.1,0.1,0.3,0.1,0.6v9.7l-8-9.4
	c-0.3-0.4-0.5-0.6-0.5-0.7c0-0.2,0.2-0.3,0.5-0.4V0.6h-3.8v0.3c0.2,0.1,0.4,0.1,0.5,0.3c0.1,0.1,0.1,0.3,0.1,0.6v11
	c0,0.3,0,0.5-0.1,0.6c-0.1,0.1-0.2,0.2-0.5,0.3V14h2.6v-0.3c-0.2-0.1-0.4-0.2-0.5-0.3c-0.1-0.1-0.1-0.3-0.1-0.6V2.3L199,12.5z
	 M217.9,1.7c-0.2,0.3-0.4,0.4-0.5,0.4c-0.1,0-0.2-0.1-0.5-0.2c-1-0.5-1.9-0.9-2.7-1.2c-0.8-0.2-1.7-0.4-2.7-0.4
	c-1.1,0-2.2,0.2-3.1,0.5c-1.4,0.5-2.5,1.3-3.3,2.4c-0.9,1.2-1.3,2.5-1.3,4c0,1,0.2,2,0.7,3c0.4,0.8,0.9,1.5,1.6,2.1
	c1.4,1.2,3.2,1.8,5.4,1.8c1.8,0,3.4-0.4,4.8-1.2c0.7-0.4,1.3-0.9,2.1-1.5v-0.3c-0.2-0.1-0.4-0.2-0.5-0.3c-0.1-0.1-0.1-0.3-0.1-0.6
	V8.6c0-0.3,0-0.5,0.1-0.6c0.1-0.1,0.2-0.2,0.5-0.3V7.5h-5.2c-0.3,0-0.5,0-0.6-0.1c-0.1-0.1-0.2-0.3-0.3-0.5H212v2.5h0.3
	c0.1-0.2,0.1-0.4,0.3-0.5c0.1-0.1,0.3-0.1,0.6-0.1h3.2v2.5c-0.6,0.5-1.3,0.9-2.1,1.2c-0.8,0.3-1.7,0.4-2.6,0.4
	c-1.8,0-3.2-0.5-4.3-1.4c-1.2-1-1.8-2.4-1.8-4.1c0-1.8,0.6-3.2,1.9-4.2c1.1-0.9,2.5-1.4,4.1-1.4c1.4,0,2.8,0.4,4.1,1.1
	c0.7,0.4,1,0.7,1,0.9c0,0.1-0.1,0.2-0.2,0.4l0.3,0.2l1.5-2.4L217.9,1.7z"/>
</svg>
